<?xml version="1.0" standalone="no"?>
<!DOCTYPE svg PUBLIC "-//W3C//DTD SVG 20010904//EN"
 "http://www.w3.org/TR/2001/REC-SVG-20010904/DTD/svg10.dtd">
<svg version="1.0" xmlns="http://www.w3.org/2000/svg"
 width="1456.000000pt" height="1456.000000pt" viewBox="0 0 1456.000000 1456.000000"
 preserveAspectRatio="xMidYMid meet">
<metadata>
Created by potrace 1.14, written by Peter Selinger 2001-2017
</metadata>
<g transform="translate(0.000000,1456.000000) scale(0.100000,-0.100000)"
fill="#000000" stroke="none">
<path d="M10798 11275 c-2 -2 -28 -6 -58 -9 -108 -10 -165 -19 -255 -42 -63
-16 -206 -73 -215 -84 -3 -4 -18 -14 -35 -23 -16 -8 -41 -25 -55 -37 -14 -12
-36 -32 -50 -44 -43 -36 -110 -127 -145 -196 -26 -53 -85 -200 -87 -220 0 -3
-2 -9 -4 -15 -8 -25 -43 -205 -49 -250 -14 -106 -15 -121 -20 -165 -2 -25 -7
-83 -10 -130 -3 -47 -8 -110 -10 -140 -2 -30 -7 -109 -10 -175 -4 -66 -8 -149
-10 -185 -9 -162 -19 -404 -19 -502 -1 -60 -3 -108 -6 -108 -3 0 -6 -73 -7
-163 -7 -651 -9 -767 -13 -768 -104 -21 -965 -30 -1360 -15 -149 5 -371 13
-570 21 -143 5 -673 17 -690 16 -8 -1 -28 -1 -45 0 -16 1 -37 1 -45 0 -67 -2
-131 -1 -138 2 -4 3 -16 1 -27 -3 -11 -4 -30 -4 -41 1 -12 4 -24 6 -27 3 -2
-3 -153 -7 -333 -9 -181 -2 -421 -7 -534 -10 -113 -3 -290 -8 -395 -10 -104
-3 -269 -8 -365 -11 -96 -3 -211 -6 -255 -7 l-80 -2 -1 187 c-2 206 -13 728
-19 878 -5 111 -14 316 -19 450 -4 98 -12 229 -21 360 -3 41 -8 111 -11 155
-5 90 -9 124 -19 210 -12 105 -16 131 -51 295 -2 14 -16 60 -30 103 -78 246
-210 407 -410 503 -82 39 -243 87 -334 98 -118 15 -218 20 -400 20 -329 -1
-508 -17 -690 -65 -41 -11 -82 -21 -90 -23 -8 -3 -28 -10 -45 -17 -16 -7 -32
-13 -35 -14 -3 -1 -30 -14 -60 -29 -30 -16 -65 -34 -77 -40 -13 -6 -23 -14
-23 -18 0 -5 -5 -8 -11 -8 -6 0 -16 -6 -23 -12 -7 -7 -33 -32 -58 -54 -25 -23
-55 -57 -68 -75 -13 -19 -27 -36 -31 -39 -16 -12 -96 -187 -104 -230 -1 -3 -4
-18 -8 -35 -30 -126 -38 -196 -40 -352 -1 -68 -4 -123 -7 -124 -3 -1 -104 -2
-225 -4 -203 -2 -371 -10 -427 -20 -13 -3 -45 -7 -73 -9 -27 -3 -59 -7 -70
-10 -119 -27 -160 -38 -190 -50 -19 -8 -35 -13 -35 -11 0 10 -123 -59 -168
-94 -51 -41 -137 -153 -125 -165 4 -3 1 -6 -5 -6 -7 0 -11 -3 -10 -7 1 -5 -5
-24 -13 -43 -15 -34 -43 -131 -53 -180 -3 -14 -7 -36 -11 -50 -3 -14 -8 -47
-11 -75 -3 -27 -8 -61 -10 -75 -18 -106 -23 -503 -10 -805 4 -93 8 -237 9
-320 l2 -150 -160 -1 c-192 0 -260 -8 -343 -36 -113 -39 -177 -117 -205 -253
-11 -53 -14 -115 -11 -255 3 -102 6 -300 8 -440 2 -277 5 -310 30 -358 9 -18
14 -32 11 -32 -6 0 21 -33 50 -62 28 -29 92 -55 149 -63 27 -3 52 -8 56 -10 7
-4 169 -18 240 -20 25 -1 59 2 76 6 18 3 37 3 44 -1 8 -5 12 -82 15 -256 2
-137 7 -283 10 -324 3 -41 7 -109 10 -150 3 -41 8 -95 11 -120 2 -25 6 -66 9
-91 2 -25 6 -57 9 -71 2 -14 8 -52 12 -84 4 -33 9 -61 9 -64 1 -3 5 -23 9 -45
4 -22 12 -60 17 -85 5 -25 12 -55 14 -67 34 -159 89 -330 133 -408 42 -75 71
-115 111 -149 14 -12 32 -28 40 -36 40 -37 158 -101 238 -129 169 -57 330 -76
701 -83 l134 -3 3 -80 c2 -44 6 -90 9 -102 11 -44 16 -68 21 -118 15 -130 46
-240 99 -345 48 -97 59 -112 135 -187 53 -52 204 -137 261 -147 14 -3 25 -5
25 -6 0 -2 17 -6 55 -14 135 -30 168 -33 375 -41 303 -11 442 -17 485 -21 135
-13 510 -12 595 2 144 22 262 65 347 125 38 27 128 118 128 130 0 4 6 14 13
21 20 21 69 140 82 203 12 54 16 73 20 105 3 19 7 44 10 55 12 56 18 209 19
480 1 165 4 305 7 310 7 12 4 1389 -3 1632 -4 129 -3 163 8 167 7 3 379 3 826
1 447 -3 824 -4 838 -4 14 0 30 1 35 0 6 0 188 -3 405 -6 1063 -16 2279 -2
2692 30 48 4 69 2 74 -7 12 -19 13 -37 3 -44 -5 -3 -6 -10 -3 -16 6 -9 9 -490
4 -513 -1 -5 -1 -12 0 -15 6 -15 4 -183 -3 -187 -4 -2 -4 -9 -1 -15 10 -16 11
-68 1 -68 -5 0 -5 -5 -1 -11 6 -10 10 -320 4 -344 -1 -5 -1 -12 0 -15 6 -15 4
-183 -3 -187 -4 -2 -4 -9 -1 -15 10 -16 11 -68 1 -68 -5 0 -5 -5 -1 -12 4 -7
7 -42 6 -78 -2 -36 -2 -72 -2 -80 0 -8 -1 -33 -1 -55 -4 -100 -1 -655 4 -700
3 -27 10 -77 16 -110 6 -33 13 -75 16 -92 9 -54 56 -195 78 -238 37 -68 94
-141 139 -178 47 -37 125 -88 142 -92 6 -1 25 -8 41 -14 43 -18 114 -39 155
-46 19 -3 46 -8 60 -10 74 -15 333 -19 570 -10 69 3 249 8 400 10 151 2 298 7
325 9 66 7 126 14 145 19 8 2 33 7 55 12 22 4 45 11 50 15 6 5 12 8 15 8 21
-3 154 57 178 79 7 7 17 13 21 13 8 0 80 71 126 125 25 30 104 177 109 205 1
8 10 40 19 70 9 30 19 72 23 94 3 21 8 48 10 60 13 61 22 137 30 246 3 47 7
86 8 87 0 1 82 4 181 7 219 7 284 12 400 32 300 51 481 150 603 331 23 34 42
68 42 75 0 8 4 18 9 23 9 10 57 160 65 205 2 14 5 25 6 25 1 0 3 9 4 20 2 11
6 34 9 50 4 17 9 44 12 60 3 17 7 41 10 55 3 14 8 44 11 66 2 23 7 52 9 64 2
13 7 55 11 94 3 39 8 82 10 96 11 61 18 278 18 565 l1 311 80 0 c132 0 255 12
335 30 41 10 78 17 83 16 4 -1 7 3 7 8 0 6 8 10 17 10 21 0 123 61 123 73 0 5
9 21 19 35 10 15 19 30 20 35 1 4 1 8 2 10 14 44 18 241 5 352 -2 28 -8 96
-11 153 -4 56 -10 127 -14 157 -5 34 -4 58 3 65 6 6 6 10 0 10 -5 0 -10 64
-10 153 -2 164 -5 189 -34 254 -38 86 -163 181 -260 198 -18 3 -36 7 -39 9 -3
2 -42 7 -85 11 -44 3 -83 8 -87 11 -4 2 -10 0 -14 -6 -4 -6 -11 -7 -17 -4 -10
6 -102 9 -123 4 -5 -1 -19 -2 -31 -1 -19 1 -21 7 -23 89 -1 83 -1 147 1 161 0
3 -1 8 -2 11 -10 26 -16 680 -10 1095 5 320 -40 441 -205 555 -48 33 -187 96
-228 104 -12 2 -42 9 -67 16 -25 7 -58 14 -75 16 -16 2 -43 6 -60 8 -116 18
-178 23 -420 32 -188 6 -304 11 -321 13 -6 1 -11 36 -11 94 -4 259 -74 512
-188 674 -49 70 -157 166 -234 208 -20 11 -39 25 -43 30 -4 6 -8 6 -8 2 0 -4
-10 -3 -21 4 -29 15 -179 69 -179 64 0 -3 -12 0 -26 6 -15 5 -43 12 -63 14
-20 3 -45 7 -57 9 -22 4 -94 14 -172 23 -54 6 -608 13 -614 8z m402 -329 c118
-8 270 -37 335 -65 60 -25 155 -77 155 -83 0 -5 5 -8 12 -8 24 0 168 -151 168
-177 0 -7 4 -13 8 -13 11 0 84 -149 110 -225 21 -60 61 -209 67 -249 2 -12 6
-33 9 -48 9 -44 16 -80 21 -118 3 -19 7 -48 10 -65 26 -173 26 -596 0 -886 -2
-25 -7 -124 -9 -218 -3 -95 -8 -177 -11 -182 -4 -5 -2 -9 4 -9 6 0 7 -11 2
-27 -4 -16 -7 -352 -5 -748 1 -396 3 -740 3 -765 0 -24 -2 -46 -4 -48 -2 -2 0
-14 5 -26 4 -13 5 -29 0 -36 -4 -7 -4 -25 0 -40 4 -15 4 -33 0 -40 -4 -7 -4
-25 0 -40 4 -15 3 -34 -2 -43 -5 -10 -5 -17 0 -17 8 0 7 -69 -2 -77 -3 -3 -1
-15 4 -28 5 -13 6 -26 3 -29 -7 -7 -6 -153 2 -165 3 -5 2 -12 -2 -14 -9 -6 -8
-1162 1 -1661 4 -199 2 -315 -5 -327 -7 -13 -6 -19 1 -19 6 0 9 -4 6 -9 -3 -5
-8 -26 -11 -47 -6 -37 -8 -53 -21 -119 -4 -16 -7 -36 -7 -42 0 -7 -4 -13 -9
-13 -5 0 -7 -4 -4 -8 6 -10 -35 -124 -64 -182 -61 -119 -170 -229 -287 -288
-51 -27 -184 -72 -227 -77 -17 -3 -42 -7 -56 -10 -41 -9 -108 -15 -225 -20
-60 -3 -135 -8 -165 -10 -30 -3 -84 -8 -120 -11 -111 -10 -282 -7 -345 6 -122
26 -273 122 -353 225 -28 36 -54 78 -56 88 -1 7 -5 17 -8 23 -11 16 -36 95
-42 129 -3 17 -7 41 -10 55 -11 47 -24 401 -30 822 -1 92 -5 170 -8 173 -2 3
-2 25 2 50 4 24 4 48 1 54 -7 11 -5 772 4 1131 3 146 8 418 10 605 3 321 12
760 20 1050 3 72 7 213 9 315 3 102 8 248 11 325 6 128 6 236 3 850 -2 224 9
438 27 555 7 44 16 99 21 125 24 131 91 308 152 404 50 78 74 105 169 188 46
41 199 116 256 127 14 2 30 7 35 10 13 8 61 16 142 22 41 3 76 7 77 8 3 2 121
-2 223 -8z m-7500 -100 c14 -3 34 -8 45 -10 286 -55 578 -252 640 -431 30 -87
30 -92 26 -590 0 -82 1 -177 3 -210 4 -70 17 -413 21 -565 2 -58 4 -105 4
-105 1 0 4 -56 6 -125 3 -69 7 -172 9 -230 8 -191 18 -513 20 -651 2 -74 6
-141 10 -147 3 -6 2 -13 -4 -17 -6 -4 -7 -11 -4 -17 8 -12 10 -101 18 -733 3
-236 9 -536 12 -665 3 -129 7 -297 9 -373 1 -76 5 -140 8 -143 3 -3 2 -17 -2
-32 -4 -15 -5 -40 -1 -57 4 -16 5 -271 4 -565 -2 -491 -5 -638 -18 -835 -3
-38 -8 -131 -11 -205 -9 -199 -15 -242 -42 -325 -47 -148 -179 -236 -388 -262
-62 -7 -294 -7 -395 1 -41 3 -142 8 -225 11 -133 5 -199 10 -215 15 -3 2 -9 2
-13 1 -9 -2 -133 27 -157 36 -8 3 -22 7 -30 9 -15 3 -23 6 -105 45 -178 83
-329 243 -396 418 -23 62 -46 191 -45 249 1 23 -1 42 -4 42 -8 0 -5 163 3 177
4 6 4 14 0 16 -6 4 -9 72 -3 72 1 0 3 32 5 70 2 39 7 124 11 190 5 66 8 365 7
665 -1 300 -1 779 -1 1065 0 286 1 786 1 1110 1 325 -3 705 -7 845 -11 305
-11 519 -2 815 4 121 9 335 11 475 7 359 15 426 69 559 49 120 164 251 257
291 13 5 31 14 39 19 35 21 133 54 205 70 53 12 83 17 180 27 33 4 61 8 63 9
7 6 357 -2 382 -9z m9185 -1050 c17 -3 50 -7 75 -11 40 -5 223 -48 258 -60 7
-2 14 -5 17 -5 3 0 31 -13 63 -29 74 -37 116 -85 136 -155 17 -59 23 -113 41
-361 13 -196 14 -235 14 -635 -1 -223 0 -497 1 -610 7 -584 -2 -1716 -14
-1728 -3 -2 -1 -13 5 -23 5 -11 6 -19 2 -19 -5 0 -9 -143 -10 -317 -1 -329 -7
-470 -23 -537 -5 -22 -7 -44 -4 -48 3 -4 0 -8 -5 -8 -6 0 -10 -3 -9 -7 6 -25
-56 -194 -100 -273 -27 -47 -33 -55 -83 -108 -28 -29 -150 -119 -156 -114 -3
2 -21 -4 -50 -15 -10 -3 -23 -7 -30 -9 -6 -1 -35 -7 -65 -14 -76 -16 -150 -22
-335 -24 l-163 -2 -1 56 c0 76 -7 239 -15 395 -9 158 -9 3100 -1 3380 4 110
10 306 13 435 4 129 7 376 7 549 l0 313 201 -5 c111 -4 215 -8 231 -11z
m-10759 -416 c1 -212 4 -448 8 -525 3 -77 8 -210 12 -295 3 -85 8 -195 10
-245 6 -115 6 -106 5 -135 -1 -14 1 -95 4 -180 13 -330 6 -1024 -10 -1050 -3
-5 -1 -10 5 -10 6 0 8 -5 5 -10 -4 -6 -8 -77 -10 -158 -2 -81 -7 -266 -11
-412 -10 -351 -10 -1316 0 -1505 9 -171 9 -185 1 -193 -7 -7 -428 -6 -477 1
-159 24 -296 106 -373 221 -59 90 -121 231 -140 316 -2 8 -8 35 -13 60 -29
129 -32 174 -37 565 -2 182 -7 359 -9 395 -5 60 -10 156 -21 425 -2 55 -6 415
-10 800 -3 385 -8 783 -10 885 -12 571 1 810 56 1018 68 258 247 388 558 408
35 2 65 5 67 6 1 2 90 3 196 3 l193 0 1 -385z m12041 -1689 c7 -1 20 -18 29
-38 16 -38 18 -83 15 -283 -1 -52 2 -119 7 -149 5 -29 10 -140 11 -246 l2
-192 -116 -2 c-64 -1 -148 -6 -187 -11 -39 -6 -73 -9 -74 -7 -6 6 -16 177 -18
299 0 65 -3 118 -6 118 -4 0 -5 453 -1 497 1 16 158 22 338 14z m-6352 -15
c211 -8 346 -13 595 -22 262 -10 939 -10 1125 0 83 4 168 8 190 9 l40 2 2
-417 3 -418 -23 -1 c-12 -1 -42 -3 -67 -4 -79 -5 -308 -16 -434 -21 -151 -6
-137 -5 -161 -4 -11 0 -126 -3 -255 -7 -400 -13 -3020 -6 -3020 8 0 3 -20 3
-45 -1 -24 -4 -50 -3 -57 1 -6 4 -19 4 -29 -1 -9 -5 -19 -6 -23 -3 -3 3 -183
7 -399 8 -215 2 -394 3 -397 4 -4 1 -4 682 -1 811 1 23 5 26 44 27 23 0 184 3
357 7 382 8 744 15 1166 21 174 2 318 6 320 8 6 6 878 0 1069 -7z m-7163 -9
l78 0 -5 -166 c-2 -91 -7 -233 -10 -316 -4 -82 -7 -204 -8 -270 -1 -68 -6
-123 -12 -127 -10 -7 -111 -2 -157 8 -13 3 -36 7 -53 9 -110 12 -137 23 -141
56 -4 36 -4 193 0 289 2 47 5 182 7 300 2 118 8 218 13 222 5 3 55 4 110 1 56
-3 136 -5 178 -6z"/>
<path d="M10964 10666 c-73 -20 -111 -64 -119 -137 -5 -43 15 -109 40 -135 60
-63 194 -56 243 13 92 129 -15 299 -164 259z"/>
<path d="M10604 10320 c-21 -10 -46 -26 -54 -37 -84 -107 -127 -237 -146 -438
-8 -89 -15 -154 -19 -185 -3 -19 -7 -66 -11 -105 -3 -38 -8 -90 -11 -115 -6
-70 -9 -460 -3 -460 3 0 7 -10 7 -22 6 -76 86 -140 176 -140 100 0 160 64 150
161 -11 95 -3 587 11 661 4 24 14 105 21 165 11 106 32 176 79 272 20 39 36
86 36 103 0 110 -131 188 -236 140z"/>
<path d="M3267 10597 c-44 -11 -106 -77 -108 -116 -5 -87 8 -126 54 -170 20
-18 41 -24 89 -28 54 -4 68 -2 97 19 63 42 88 111 69 188 -22 84 -108 130
-201 107z"/>
<path d="M2989 10219 c-37 -9 -72 -29 -93 -53 -47 -54 -109 -250 -133 -421 -4
-33 -8 -163 -8 -290 0 -201 4 -269 20 -410 1 -16 6 -64 10 -105 10 -109 32
-151 98 -193 36 -23 131 -29 169 -10 15 8 38 28 50 46 22 31 27 78 15 167 -3
19 -8 62 -11 95 -4 33 -9 78 -12 100 -26 216 -18 512 17 660 5 22 11 51 14 65
2 14 13 52 25 85 47 132 49 170 13 212 -37 41 -121 67 -174 52z"/>
</g>
</svg>
