<svg width="65" height="65" viewBox="0 0 65 65" fill="none" xmlns="http://www.w3.org/2000/svg">
<path d="M64.9995 12.0942C65.0332 11.0009 63.3174 11.0009 63.2837 12.0942C63.0987 19.1419 59.7007 22.5732 52.9048 23.1787C46.1594 23.7674 34.5862 25.3317 33.3582 16.3665C33.3414 16.1983 33.2741 16.0806 33.19 15.9797C33.3246 14.3481 33.2573 12.6661 33.2741 11.1354C33.2741 10.0421 31.5751 10.0253 31.5583 11.1354C31.5415 14.079 31.9788 18.2504 29.7584 20.5043C27.1174 23.1787 21.8859 23.7001 18.3197 23.801C15.0564 23.902 10.6491 24.087 7.739 22.6068C3.9878 20.6893 1.90193 16.2151 1.71689 12.2119C1.66642 11.1186 -0.049373 11.1018 0.0010916 12.2119C0.20295 16.232 1.85146 19.9997 4.89616 22.6236C6.1746 26.61 6.56149 30.731 7.52032 34.7846C8.37822 38.4178 9.72394 41.7986 10.1277 45.5327C10.4641 48.6781 10.7164 51.9917 10.4641 55.1538C10.2118 58.2151 9.00061 61.125 8.63054 64.1863C8.49597 65.2796 10.2118 65.2628 10.3463 64.1863C10.7332 60.9904 12.0117 57.9965 12.1967 54.767C12.3817 51.3525 12.1462 47.8371 11.7257 44.4562C11.3556 41.479 10.3463 38.7205 9.57255 35.8275C8.52961 31.9756 8.10907 28.0061 7.1166 24.1543C10.4473 25.8026 14.7872 25.6344 18.3366 25.5335C22.4578 25.399 27.908 24.7766 30.9864 21.7322C31.6592 21.0594 32.1302 20.3024 32.4835 19.4614C35.5955 26.7109 46.5968 25.5503 53.5609 24.8607C55.3608 24.6757 56.9084 24.2888 58.2709 23.7169C57.1102 26.7109 56.7738 29.8563 56.1514 33.0858C55.4617 36.7189 53.9814 40.1671 53.4431 43.8339C52.9385 47.282 52.7534 50.8647 52.8712 54.3297C53.0058 57.7105 54.2842 60.8559 54.6711 64.1863C54.8057 65.2628 56.5046 65.2796 56.3869 64.1863C56.0505 61.2596 54.9402 58.4842 54.6374 55.5575C54.301 52.2944 54.6038 48.7958 54.9402 45.5495C55.3103 42.0846 56.5046 38.956 57.3289 35.592C58.4391 31.101 58.4223 26.5091 60.7437 22.3713C60.7773 22.304 60.7941 22.2368 60.8109 22.1695C63.4856 20.0165 64.8818 16.6525 64.9995 12.0942Z" fill="#2B3541"/>
<path d="M47.1351 32.1775C45.638 34.8015 34.5189 34.3137 33.2068 31.757C33.1564 31.6561 33.0891 31.6056 33.0386 31.5383C33.3919 29.9404 33.19 28.0061 33.0723 26.0718C33.005 24.9785 31.306 24.9785 31.3565 26.0718C31.5751 29.789 32.3658 33.2035 27.4034 33.6409C24.4428 33.91 19.716 34.6837 17.445 32.3962C16.6713 31.6056 15.4601 32.8167 16.2339 33.6072C19.2113 36.618 25.1661 35.9116 28.951 35.1715C30.5827 34.8519 31.6088 34.2127 32.248 33.3381C34.0311 35.3902 37.7823 35.3229 40.2214 35.3733C42.8288 35.4238 47.0846 35.7097 48.5985 33.0353C49.1705 32.0766 47.6902 31.2188 47.1351 32.1775Z" fill="#2B3541"/>
<path d="M31.1041 44.0021C30.4649 45.0449 28.7827 45.4486 27.6893 45.5159C24.8465 45.7009 20.2037 46.1046 20.0355 42.1687C19.9851 41.0754 18.2861 41.0586 18.3197 42.1687C18.4038 43.9853 18.7066 45.6505 20.4897 46.4747C22.7102 47.5175 25.3343 47.3661 27.6893 47.2147C29.4051 47.1138 31.3564 47.1643 32.3489 45.4991C32.3489 45.4823 32.3657 45.4654 32.3657 45.4654C32.6349 45.8523 33.0049 46.1719 33.5264 46.441C35.4777 47.4166 38.1187 47.282 40.2382 47.3325C43.6866 47.4334 46.1257 45.97 46.6472 42.3537C46.7986 41.2772 45.1501 40.8063 44.9987 41.8996C44.5781 44.8263 42.8455 45.7009 40.2382 45.6168C37.4795 45.5495 34.132 45.9869 33.0722 42.8079C33.0722 42.8079 33.0722 42.8079 33.0722 42.791C33.1563 41.6473 33.1059 40.4867 33.0386 39.5279C32.9713 38.4346 31.2723 38.4178 31.3228 39.5279C31.3732 40.4026 31.4069 41.2436 31.3228 42.1182C31.306 42.6397 31.3564 43.5984 31.1041 44.0021Z" fill="#2B3541"/>
<path d="M55.6805 20.5884C56.7739 20.5884 56.7907 18.8727 55.6805 18.8727C54.5871 18.8727 54.5871 20.5884 55.6805 20.5884Z" fill="#2B3541"/>
<path d="M9.45474 20.5884C10.5481 20.5884 10.565 18.8727 9.45474 18.8727C8.36134 18.8727 8.36134 20.5884 9.45474 20.5884Z" fill="#2B3541"/>
<path d="M45.0323 53.6569C45.0155 55.3557 44.9987 56.4322 43.2156 56.9368C42.2904 57.1891 41.382 57.1555 40.44 57.1218C37.8832 57.0209 34.0142 57.6432 33.4255 54.296C33.5432 53.0513 33.3918 51.7057 33.3582 50.6629C33.3245 49.5696 31.6087 49.5527 31.6424 50.6629C31.6928 52.1599 31.8779 53.5223 31.2218 54.9016C30.6163 56.1967 29.5229 56.3817 28.1771 56.6172C26.7305 56.8527 25.1493 56.8527 23.6858 56.7854C21.2467 56.6677 20.8261 55.5407 20.4729 53.4382C20.2878 52.3617 18.6393 52.8159 18.8244 53.8924C19.0767 55.4903 19.3458 57.2227 20.9102 57.9965C22.8783 58.9889 26.0576 58.6356 28.1435 58.3329C29.5229 58.131 31.491 57.7946 32.5003 56.6677C34.1488 58.972 37.8327 58.7197 40.6587 58.8375C42.0381 58.8879 43.9221 58.8207 45.1669 58.131C46.7818 57.2396 46.6976 55.2716 46.7145 53.6401C46.7649 52.5467 45.0491 52.5467 45.0323 53.6569Z" fill="#2B3541"/>
<path d="M16.0825 1.98527C20.4729 1.98527 24.2577 1.48066 27.8239 4.40737C28.665 5.097 29.8929 3.90277 29.035 3.19632C25.0147 -0.0836127 21.1121 0.269611 16.0825 0.286431C14.9722 0.286431 14.9722 1.98527 16.0825 1.98527Z" fill="#2B3541"/>
<path d="M36.9243 4.40738C39.8512 1.262 44.9313 1.86753 48.9012 1.71615C49.9946 1.68251 50.0114 -0.0331521 48.9012 0.000488292C44.393 0.16869 39.0606 -0.403196 35.7131 3.1795C34.973 4.00369 36.1841 5.21475 36.9243 4.40738Z" fill="#2B3541"/>
</svg>
